<?xml version="1.0" standalone="no"?>
<!DOCTYPE svg PUBLIC "-//W3C//DTD SVG 20010904//EN"
 "http://www.w3.org/TR/2001/REC-SVG-20010904/DTD/svg10.dtd">
<svg version="1.0" xmlns="http://www.w3.org/2000/svg"
 width="400.000000pt" height="400.000000pt" viewBox="0 0 400.000000 400.000000"
 preserveAspectRatio="xMidYMid meet">

<g transform="translate(0.000000,400.000000) scale(0.100000,-0.100000)"
fill="#000000" stroke="none">
<path d="M1418 3375 c-3 -4 -44 -10 -91 -15 -128 -13 -178 -45 -245 -157 l-31
-52 32 18 c18 11 61 28 97 40 36 12 81 31 101 44 34 20 156 127 146 127 -2 0
-6 -2 -9 -5z"/>
<path d="M2624 3329 c74 -69 115 -94 196 -120 36 -12 79 -29 97 -40 l32 -18
-31 52 c-67 112 -117 144 -244 157 -46 5 -90 12 -96 16 -7 4 13 -17 46 -47z"/>
<path d="M1014 3281 c-129 -90 -175 -160 -194 -292 -6 -40 -17 -86 -25 -101
-14 -29 -7 -29 26 -1 8 7 54 28 101 46 46 19 107 49 134 68 56 38 141 115 154
140 8 15 4 15 -53 2 -85 -20 -156 -54 -208 -99 -40 -36 -46 -32 -11 8 13 16
152 278 147 278 -1 0 -33 -22 -71 -49z"/>
<path d="M2980 3199 c37 -71 74 -137 82 -147 35 -40 29 -44 -11 -8 -52 45
-123 79 -208 99 -57 13 -61 13 -53 -2 13 -25 98 -102 154 -140 27 -19 88 -49
134 -68 47 -18 93 -39 101 -46 33 -28 40 -28 26 1 -8 15 -19 61 -25 101 -13
91 -36 146 -86 201 -31 34 -124 107 -170 133 -6 3 20 -52 56 -124z"/>
<path d="M1757 3266 c-63 -15 -75 -32 -69 -96 l5 -50 -48 -20 c-89 -38 -94
-38 -136 11 l-38 44 -56 -30 c-63 -33 -77 -61 -51 -100 28 -42 20 -70 -31
-114 -27 -23 -55 -41 -62 -41 -8 0 -31 11 -51 25 -23 16 -43 23 -54 19 -18 -7
-86 -90 -86 -105 0 -5 17 -27 37 -50 l37 -41 -28 -54 c-35 -67 -50 -76 -102
-62 -23 6 -48 9 -57 5 -19 -7 -53 -108 -44 -131 3 -8 22 -22 42 -30 45 -19 51
-35 37 -109 -13 -67 -22 -77 -70 -77 -61 0 -72 -13 -72 -83 0 -72 10 -87 57
-87 39 0 73 -29 73 -62 0 -13 3 -39 6 -59 7 -42 -12 -67 -58 -76 -42 -8 -48
-35 -26 -107 10 -33 21 -62 23 -64 3 -3 213 56 222 62 1 1 -9 36 -22 78 -86
271 -40 563 125 803 55 79 157 181 234 234 76 53 206 110 301 133 50 12 91 22
93 24 3 2 -31 159 -44 207 -6 19 -18 20 -87 3z"/>
<path d="M2141 3178 c-13 -56 -25 -107 -27 -113 -3 -6 30 -18 73 -28 360 -82
641 -373 709 -732 23 -126 15 -298 -20 -418 -14 -48 -26 -91 -26 -96 0 -12
211 -74 219 -64 4 4 16 36 26 70 20 71 14 87 -36 98 -34 8 -60 40 -54 69 2 12
7 38 10 58 8 50 28 68 75 68 51 0 64 22 54 96 -7 61 -21 74 -77 74 -42 0 -53
12 -67 75 -15 69 -7 92 39 111 22 9 42 23 45 31 6 16 -19 96 -37 121 -12 15
-51 16 -78 1 -31 -16 -56 -2 -83 48 -34 59 -33 84 4 116 38 34 38 53 -1 100
-46 56 -61 61 -103 32 -20 -14 -45 -25 -54 -25 -24 0 -112 84 -112 107 0 11 7
28 15 39 8 10 15 31 15 46 0 21 -10 32 -51 58 -58 35 -80 33 -106 -11 -26 -43
-54 -46 -121 -13 l-57 29 0 60 c0 59 0 60 -35 71 -19 6 -53 15 -76 18 l-40 7
-23 -103z"/>
<path d="M728 3050 c-121 -138 -160 -241 -138 -365 7 -38 14 -92 17 -118 l6
-48 31 29 c17 16 55 42 84 58 30 15 74 50 98 77 40 44 140 197 129 197 -10 0
-171 -80 -186 -92 -8 -7 -32 -35 -52 -61 -20 -27 -37 -47 -37 -44 0 2 7 24 15
48 9 24 27 105 39 180 13 75 31 150 40 167 9 18 14 32 12 32 -3 0 -29 -27 -58
-60z"/>
<path d="M3226 3081 c9 -19 27 -95 40 -170 12 -75 30 -156 39 -180 8 -24 15
-46 15 -48 0 -3 -17 17 -37 44 -20 26 -44 54 -52 61 -15 12 -176 92 -186 92
-11 0 89 -153 129 -197 24 -27 68 -62 98 -77 29 -16 67 -42 84 -58 l31 -29 6
48 c3 26 10 80 17 118 23 126 -20 236 -142 367 -49 53 -56 58 -42 29z"/>
<path d="M1650 2760 c0 -28 3 -30 36 -30 19 0 44 -5 55 -10 18 -10 19 -27 19
-548 0 -405 -3 -541 -12 -550 -7 -7 -31 -12 -55 -12 -41 0 -43 -1 -43 -30 l0
-30 407 2 407 3 24 84 c22 81 23 111 4 111 -5 0 -15 -13 -22 -29 -14 -35 -56
-76 -91 -90 -15 -5 -115 -13 -223 -17 -181 -6 -198 -6 -216 11 -19 18 -20 31
-20 545 0 595 -5 560 78 560 40 0 42 1 42 30 l0 30 -195 0 -195 0 0 -30z"/>
<path d="M493 2678 c-86 -205 -94 -302 -37 -438 20 -47 44 -108 53 -137 20
-63 31 -76 31 -39 0 45 26 92 87 158 79 85 98 119 142 252 l39 115 -90 -82
c-101 -91 -123 -119 -147 -183 l-17 -43 0 67 c0 37 -11 122 -24 189 -18 100
-21 130 -12 165 6 23 10 44 8 45 -2 2 -17 -29 -33 -69z"/>
<path d="M3474 2738 c17 -61 16 -96 -4 -200 -12 -62 -23 -145 -23 -185 l-2
-71 -16 43 c-24 62 -46 91 -147 182 l-90 82 39 -115 c44 -133 63 -167 140
-250 68 -73 79 -92 88 -153 l7 -46 21 65 c11 36 37 103 57 150 48 114 49 190
6 322 -26 79 -89 226 -76 176z"/>
<path d="M2342 2659 c-106 -20 -201 -101 -244 -207 -20 -51 -23 -73 -23 -222
0 -149 3 -171 23 -222 27 -68 97 -148 161 -186 40 -24 56 -27 131 -27 63 0 95
5 122 19 95 47 174 152 197 264 6 29 11 98 11 152 0 122 -13 188 -53 263 -64
121 -199 190 -325 166z m157 -79 c19 -13 43 -44 55 -69 20 -43 21 -62 21 -286
0 -231 -1 -242 -23 -287 -41 -83 -130 -117 -217 -83 -63 23 -94 67 -107 151
-13 89 -6 459 11 499 16 40 49 74 86 91 45 21 134 13 174 -16z"/>
<path d="M1340 2615 c0 -22 5 -25 33 -25 60 0 57 15 55 -371 l-3 -354 -42 -3
c-38 -3 -43 -6 -43 -28 l0 -24 160 0 160 0 0 24 c0 22 -5 25 -42 28 l-43 3 0
360 0 360 43 3 c37 3 42 6 42 28 l0 24 -160 0 -160 0 0 -25z"/>
<path d="M733 2257 c-6 -13 -39 -63 -73 -111 -69 -95 -100 -176 -100 -259 l-1
-52 -18 51 c-10 27 -46 97 -80 155 -34 57 -69 129 -78 159 l-17 55 -7 -50
c-12 -87 -10 -219 6 -278 24 -94 52 -137 154 -237 l96 -95 -3 56 c-4 56 8 99
62 225 38 90 55 165 64 289 5 61 8 111 7 113 -1 1 -7 -9 -12 -21z"/>
<path d="M3255 2255 c2 -16 7 -68 10 -115 7 -113 29 -196 78 -305 36 -79 41
-99 42 -165 l0 -75 96 95 c102 100 130 143 154 237 16 59 18 191 6 278 l-7 50
-17 -55 c-9 -30 -44 -102 -78 -159 -34 -58 -70 -128 -80 -155 l-18 -51 -1 52
c0 81 -31 163 -96 254 -33 45 -67 96 -76 113 l-17 31 4 -30z"/>
<path d="M737 1840 c-71 -205 -82 -308 -42 -404 l24 -59 -29 34 c-16 19 -29
37 -30 41 0 4 -46 43 -102 87 -101 78 -113 91 -150 161 l-19 35 7 -45 c9 -61
51 -195 81 -253 47 -94 128 -159 233 -187 25 -7 62 -21 82 -31 l37 -19 -22 48
c-23 52 -26 108 -13 277 6 79 5 114 -8 165 -32 127 -44 165 -49 150z"/>
<path d="M3247 1822 c-2 -15 -15 -65 -27 -112 -20 -75 -22 -97 -15 -190 14
-179 12 -221 -16 -277 l-24 -50 30 19 c16 10 59 27 95 38 114 34 186 94 238
195 25 51 68 187 76 245 l7 45 -19 -35 c-37 -70 -49 -83 -149 -161 -57 -44
-103 -83 -103 -87 -1 -4 -14 -22 -30 -41 l-29 -34 24 59 c34 82 33 156 -5 279
-16 54 -30 103 -30 111 0 26 -18 23 -23 -4z"/>
<path d="M1180 1511 l-85 -79 50 -51 c55 -57 80 -63 115 -26 32 34 54 32 111
-12 58 -44 65 -62 44 -103 -25 -49 -16 -69 43 -101 29 -15 59 -26 67 -23 8 3
23 21 34 40 11 19 28 37 36 40 22 9 101 -15 131 -39 22 -17 24 -24 19 -61 -8
-49 10 -76 49 -76 13 0 37 -3 53 -6 36 -7 63 15 63 52 0 41 33 64 93 64 61 0
80 -15 92 -67 9 -46 26 -56 82 -47 76 11 83 17 83 78 0 61 5 67 77 90 65 21
85 16 106 -29 20 -41 47 -45 106 -16 59 31 67 45 48 87 -26 53 -21 69 31 113
55 48 73 50 114 16 16 -14 38 -25 48 -25 10 0 41 23 68 52 l50 52 -80 75 c-44
42 -84 77 -88 79 -4 1 -38 -29 -76 -69 -113 -117 -261 -205 -419 -250 -92 -26
-288 -36 -390 -20 -194 32 -369 123 -513 268 -40 40 -74 73 -75 73 -2 0 -41
-36 -87 -79z"/>
<path d="M858 1407 c6 -170 30 -238 120 -340 36 -40 36 -41 7 -22 -88 56 -142
80 -262 115 -40 11 -87 33 -104 47 l-32 27 13 -24 c24 -46 120 -167 160 -204
142 -129 300 -175 486 -142 136 23 155 34 59 33 -133 -2 -176 36 -220 193 -33
119 -63 179 -133 272 -30 40 -65 89 -77 110 l-21 36 4 -101z"/>
<path d="M3135 1492 c-3 -11 -37 -62 -75 -113 -84 -113 -111 -167 -145 -289
-44 -157 -87 -195 -220 -193 -96 1 -77 -10 59 -33 186 -33 344 13 486 142 40
37 136 158 160 204 l13 24 -32 -27 c-17 -14 -64 -36 -104 -47 -119 -35 -170
-57 -262 -115 l-30 -19 31 35 c95 105 113 153 123 319 5 69 7 126 5 128 -1 2
-5 -5 -9 -16z"/>
<path d="M1655 886 c-38 -8 -142 -33 -230 -57 -141 -38 -173 -43 -270 -43 -93
-1 -118 3 -160 21 l-50 23 45 -40 c62 -55 173 -108 267 -127 65 -13 91 -14
156 -5 97 14 146 36 250 110 45 33 97 67 116 77 39 20 127 31 167 21 27 -7 25
-9 -37 -43 -68 -38 -165 -111 -213 -162 -31 -32 -31 -30 18 -45 8 -3 29 18 51
50 47 68 109 123 180 160 l55 29 55 -29 c71 -37 133 -92 180 -160 22 -32 43
-53 51 -50 49 15 49 13 18 45 -48 51 -145 124 -213 162 -62 34 -64 36 -37 43
40 10 128 -1 167 -21 19 -10 71 -44 116 -77 104 -74 153 -96 250 -110 65 -9
91 -8 156 5 94 19 205 72 267 127 l45 40 -50 -23 c-42 -18 -67 -22 -160 -21
-100 1 -128 6 -310 54 -188 50 -207 53 -320 53 -83 0 -135 -5 -167 -15 -43
-14 -53 -14 -95 -1 -68 21 -215 25 -298 9z"/>
</g>
</svg>
